# xmcd
#
# Track frame offsets: 
#        150
#        19570
#        35660
#        49470
#        67937
#        85937
#        103763
#        123024
#        141008
#        159609
#        174730
#        183115
#        190337
#
# Disc length: 2626 seconds
#
# Revision: 1
# Processed by: cddbd v1.5.2PL0 Copyright (c) Steve Scherf et al.
# Submitted via: ExactAudioCopy v1.0b4
#
DISCID=ab0a400d
DTITLE=Erja Lyytinen - Voracious Love
DYEAR=2010
DGENRE=Blues Rock
TTITLE0=Voracious Love
TTITLE1=Don't Let A Good Woman Down
TTITLE2=Crowes At Your Door
TTITLE3=Bed Of Roses
TTITLE4=Bird
TTITLE5=Gilmore
TTITLE6=I Think Of You
TTITLE7=Oil And Water
TTITLE8=Can't Fall In Love
TTITLE9=One Thing I Won't Change
TTITLE10=Soul Of A Man
TTITLE11=The Road Leading Home
TTITLE12=No Place Like Home
EXTD=
EXTT0=
EXTT1=
EXTT2=
EXTT3=
EXTT4=
EXTT5=
EXTT6=
EXTT7=
EXTT8=
EXTT9=
EXTT10=
EXTT11=
EXTT12=
PLAYORDER=
